<svg xmlns="http://www.w3.org/2000/svg" fill="none" viewBox="0 0 24 24" id="Facebook-1--Streamline-Core" height="24" width="24"><desc>Facebook 1 Streamline Icon: https://streamlinehq.com</desc><g id="facebook-1--media-facebook-social"><path id="Vector" fill="#000000" d="M0 22.153885714285714V1.8461485714285715C0 1.3565228571428571 0.19450457142857142 0.8869474285714285 0.5407251428571428 0.5407251428571428 0.8869474285714285 0.19450457142857142 1.3565228571428571 0 1.8461485714285715 0H22.153885714285714c0.48960000000000004 0 0.9591428571428571 0.19450457142857142 1.3054285714285714 0.5407251428571428 0.3461142857142857 0.3462222857142857 0.5406857142857143 0.8157977142857142 0.5406857142857143 1.3054234285714286V22.153885714285714c0 0.48960000000000004 -0.19457142857142856 0.9591428571428571 -0.5406857142857143 1.3054285714285714 -0.3462857142857143 0.3461142857142857 -0.8158285714285713 0.5406857142857143 -1.3054285714285714 0.5406857142857143H16.61538857142857V15.24924h1.3107257142857143c0.2988 0 0.5850857142857142 -0.11866285714285714 0.7962857142857143 -0.32984571428571424 0.2112 -0.2112 0.3298285714285714 -0.49763999999999997 0.3298285714285714 -0.7963199999999999v-1.4215371428571428c0 -0.14789142857142856 -0.028971428571428568 -0.2943257142857143 -0.08571428571428572 -0.4309542857142857 -0.05657142857142857 -0.1366285714285714 -0.13954285714285714 -0.2607771428571429 -0.2441142857142857 -0.3653485714285714s-0.22868571428571427 -0.18752571428571427 -0.3653142857142857 -0.24413142857142858c-0.1366285714285714 -0.05658857142857142 -0.2830285714285714 -0.08571428571428572 -0.43097142857142856 -0.08571428571428572h-1.2368742857142856V9.84c0 -1.5507771428571426 0.7015028571428571 -1.5507771428571426 1.4029885714285713 -1.5507771428571426h0.9046285714285713c0.14862857142857142 0.00612 0.29674285714285714 -0.020468571428571426 0.43388571428571426 -0.07787999999999999 0.13714285714285715 -0.057428571428571426 0.2600571428571428 -0.14427428571428572 0.36 -0.25441714285714284 0.10731428571428571 -0.10213714285714286 0.19217142857142858 -0.22542857142857142 0.2494285714285714 -0.3620742857142857 0.057257142857142854 -0.1366457142857143 0.08537142857142856 -0.28366285714285716 0.08297142857142857 -0.4317771428571428v-1.3661485714285713c0.0048 -0.15034285714285714 -0.019885714285714284 -0.3001714285714286 -0.07285714285714286 -0.44093142857142853 -0.05314285714285714 -0.14076 -0.13337142857142856 -0.2696914285714285 -0.23622857142857143 -0.3794228571428571 -0.10285714285714284 -0.10973142857142856 -0.22628571428571428 -0.19810285714285714 -0.3634285714285714 -0.26009142857142853 -0.13697142857142855 -0.06197142857142857 -0.2849142857142857 -0.09632571428571428 -0.43525714285714284 -0.10109142857142857H16.892314285714285c-0.6194914285714286 -0.023297142857142857 -1.2366342857142856 0.08816571428571428 -1.8088457142857144 0.3266914285714285 -0.5721942857142858 0.23850857142857143 -1.0857942857142857 0.5983885714285714 -1.5053314285714283 1.054782857142857 -0.41951999999999995 0.45639428571428575 -0.7349828571428572 0.9984171428571428 -0.9245828571428572 1.5886285714285713 -0.1896 0.5902285714285714 -0.24881142857142854 1.2145542857142855 -0.1735542857142857 1.8298971428571427v2.1599999999999997h-1.1815371428571428c-0.14943428571428571 -0.0024514285714285714 -0.2978571428571428 0.024874285714285713 -0.43662857142857137 0.08036571428571428 -0.13877142857142855 0.055491428571428573 -0.2651142857142857 0.13805142857142857 -0.37163999999999997 0.24287999999999998 -0.10654285714285713 0.10481142857142857 -0.19114285714285714 0.22978285714285712 -0.24889714285714287 0.3676285714285714 -0.057737142857142855 0.13786285714285715 -0.08746285714285715 0.2858228571428571 -0.08744571428571428 0.4352742857142857v1.4215371428571428c-0.00001714285714285714 0.14945142857142854 0.02970857142857143 0.2974285714285714 0.08744571428571428 0.4352742857142857 0.05775428571428571 0.13784571428571427 0.1423542857142857 0.26281714285714286 0.24889714285714287 0.3676457142857143 0.10652571428571428 0.10481142857142857 0.2328685714285714 0.18737142857142855 0.37163999999999997 0.24287999999999998 0.13877142857142855 0.055491428571428573 0.28719428571428574 0.0828 0.43662857142857137 0.08036571428571428H12.48V24H1.8461485714285715c-0.4896257142857143 0 -0.9592011428571428 -0.19457142857142856 -1.3054234285714286 -0.5406857142857143C0.19450457142857142 23.11302857142857 0 22.643485714285713 0 22.153885714285714Z" stroke-width="1.7143"></path></g></svg>