<svg xmlns="http://www.w3.org/2000/svg" fill="none" viewBox="0 0 40 40" id="Google--Streamline-Svg-Logos" height="40" width="40"><desc>Google Streamline Icon: https://streamlinehq.com</desc><path fill="#ff302f" d="m38.431 21.424750000000003 1.0900833333333335 0.72675c-0.35379166666666667 0.521125 -1.2000416666666667 1.4152083333333334 -2.6630833333333332 1.4152083333333334 -1.8167916666666666 0 -3.1698333333333335 -1.4056666666666668 -3.1698333333333335 -3.193791666666667 0 -1.9028750000000003 1.367375 -3.19375 3.0168333333333335 -3.19375 1.6590416666666667 0 2.4718333333333335 1.3195833333333333 2.7347916666666667 2.0319583333333333l0.14345833333333333 0.363375 -4.274291666666667 1.769c0.32508333333333334 0.6406666666666667 0.831875 0.9657500000000001 1.5490416666666667 0.9657500000000001 0.7171666666666667 0 1.2144166666666667 -0.35379166666666667 1.573 -0.8845Zm-3.3515416666666664 -1.1522083333333333 2.8542916666666667 -1.1857083333333334c-0.15775 -0.39683333333333337 -0.6263333333333334 -0.6789166666666667 -1.1857083333333334 -0.6789166666666667 -0.712375 0 -1.702041666666667 0.6310833333333333 -1.6685833333333333 1.8646250000000002Z" stroke-width="0.4167"></path><path fill="#20b15a" d="M31.627583333333334 13.92325h1.3769583333333333v9.351791666666667h-1.3769583333333333V13.92325Z" stroke-width="0.4167"></path><path fill="#3686f7" d="M29.457 17.427791666666668h1.3291250000000001v5.679916666666667c0 2.3570833333333336 -1.3912916666666668 3.3276250000000003 -3.0360000000000005 3.3276250000000003 -1.5490416666666667 0 -2.4813750000000003 -1.04225 -2.830375 -1.8885l1.2191666666666667 -0.5068333333333334c0.2199166666666667 0.5211666666666667 0.7506250000000001 1.1379166666666667 1.6112083333333334 1.1379166666666667 1.056625 0 1.706875 -0.655 1.706875 -1.8789583333333335v-0.45899999999999996h-0.04783333333333333c-0.31554166666666666 0.3825 -0.9179583333333334 0.72675 -1.6829166666666666 0.72675 -1.5969166666666665 0 -3.0599166666666666 -1.3913333333333333 -3.0599166666666666 -3.1842083333333333 0 -1.8025 1.463 -3.208125 3.0599166666666666 -3.208125 0.7601666666666667 0 1.367375 0.33945833333333336 1.6829166666666666 0.712375h0.04783333333333333v-0.4589583333333333Zm0.095625 2.9547083333333335c0 -1.1283333333333334 -0.7506250000000001 -1.9507083333333335 -1.706875 -1.9507083333333335 -0.9657500000000001 0 -1.778541666666667 0.8223750000000001 -1.778541666666667 1.9507083333333335 0 1.114 0.8127916666666667 1.9220000000000002 1.778541666666667 1.9220000000000002 0.95625 0.004750000000000001 1.706875 -0.808 1.706875 -1.9220000000000002Z" stroke-width="0.4167"></path><path fill="#ff302f" d="M17.107333333333333 20.358583333333332c0 1.8407083333333334 -1.4343333333333335 3.19375 -3.19375 3.19375 -1.7594583333333333 0 -3.193791666666667 -1.3578333333333334 -3.193791666666667 -3.19375 0 -1.8502916666666667 1.4343333333333335 -3.198541666666667 3.193791666666667 -3.198541666666667 1.7594166666666666 0 3.19375 1.34825 3.19375 3.198541666666667Zm-1.3960833333333333 0c0 -1.1474583333333332 -0.8319166666666666 -1.9363333333333332 -1.7976666666666667 -1.9363333333333332 -0.9657916666666666 0 -1.7977083333333332 0.788875 -1.7977083333333332 1.9363333333333332 0 1.1379166666666667 0.8319166666666666 1.9363333333333332 1.7977083333333332 1.9363333333333332 0.9657500000000001 0 1.7976666666666667 -0.7984166666666667 1.7976666666666667 -1.9363333333333332Z" stroke-width="0.4167"></path><path fill="#ffba40" d="M24.08304166666667 20.37291666666667c0 1.8407083333333334 -1.4343333333333335 3.193791666666667 -3.19375 3.193791666666667 -1.7594583333333333 0 -3.193791666666667 -1.3530833333333334 -3.193791666666667 -3.193791666666667 0 -1.8502916666666667 1.4343333333333335 -3.19375 3.193791666666667 -3.19375 1.7594166666666666 0 3.19375 1.3387083333333334 3.19375 3.19375Zm-1.4008333333333334 0c0 -1.1474583333333332 -0.8319166666666666 -1.9363333333333332 -1.7977083333333332 -1.9363333333333332s-1.7977083333333332 0.788875 -1.7977083333333332 1.9363333333333332c0 1.1379166666666667 0.8319166666666666 1.9363333333333332 1.7977083333333332 1.9363333333333332 0.9705416666666666 0 1.7977083333333332 -0.8032083333333333 1.7977083333333332 -1.9363333333333332Z" stroke-width="0.4167"></path><path fill="#3686f7" d="M5.470291666666667 22.165833333333335c-2.0032916666666667 0 -3.5714875 -1.616 -3.5714875 -3.6192916666666664 0 -2.0032500000000004 1.5681958333333332 -3.6192916666666664 3.5714875 -3.6192916666666664 1.0805 0 1.8693750000000002 0.4255416666666667 2.452666666666667 0.9705833333333335l0.9610000000000001 -0.9610000000000001c-0.8127916666666667 -0.7793333333333334 -1.8980833333333333 -1.3721666666666668 -3.413666666666667 -1.3721666666666668C2.7259333333333333 13.564666666666668 0.4166666666666667 15.802208333333335 0.4166666666666667 18.546541666666666s2.309266666666667 4.981916666666667 5.053625 4.981916666666667c1.4821250000000001 0 2.600875 -0.48766666666666675 3.4758333333333336 -1.3960833333333333 0.8988333333333334 -0.8988333333333334 1.1761666666666668 -2.1610416666666667 1.1761666666666668 -3.1842083333333333 0 -0.32033333333333336 -0.038250000000000006 -0.65025 -0.08129166666666666 -0.8940833333333333H5.470291666666667v1.3291666666666666h3.255916666666667c-0.095625 0.8319166666666666 -0.35858333333333337 1.4008333333333334 -0.7458750000000001 1.7881250000000002 -0.4685416666666667 0.47333333333333333 -1.2095833333333335 0.9944583333333333 -2.5100416666666665 0.9944583333333333Z" stroke-width="0.4167"></path></svg>